M48
;GenerationSoftware,Autodesk,EAGLE,9.6.2*%
;CreationDate,2025-02-18T12:40:27Z*%
FMAT,2
ICI,OFF
METRIC,TZ,000.000
T4C0.350
T3C0.400
T2C2.000
T1C2.500
%
G90
M71
T1
X-100000Y-42500
X100000Y-42500
X100000Y42500
X-100000Y42500
T2
X-53000Y-33500
T3
X33290Y-21490
X56000Y-26500
X58040Y-25220
X47500Y-21500
X47500Y-23500
X-78500Y40000
X-55500Y-20500
X88500Y-25000
X9630Y-23220
X9630Y-25840
X71750Y13000
X62430Y6880
X-87840Y12240
X-94850Y8700
X-90290Y24590
X-66930Y24590
X90500Y-24000
X33490Y-26140
X21093Y-43532
X21103Y-45200
X21950Y-43520
X21960Y-45190
X-65000Y4000
X-65000Y16000
X-65000Y40000
X-78500Y17500
X-78500Y2500
X-65000Y-27000
X-65000Y-11000
X-92000Y4000
X-92000Y40000
X-57500Y-22000
X-78500Y-9500
X-78500Y-27000
X-92000Y-27000
X-92000Y-11000
X92000Y3500
X92000Y17000
X92000Y40000
X78500Y17000
X78500Y3500
X92000Y-27000
X92000Y-10000
X65000Y3500
X65000Y17000
X65000Y40000
X78500Y40000
X78500Y-10000
X78500Y-27000
X65000Y-27000
X65000Y-10000
X-19500Y-28000
X0Y-28000
X19500Y-28000
X39000Y-28000
X52260Y-38220
X26513Y-41037
X24400Y-42820
X50416Y-40510
X52250Y-25430
X-92000Y16000
X-39000Y-28000
T4
X48788Y-27132
X35855Y-28485
X36670Y-29310
X41600Y-29000
X41590Y-30510
X96880Y-23050
M30